<svg xmlns="http://www.w3.org/2000/svg" xmlns:xlink="http://www.w3.org/1999/xlink" width="700" zoomAndPan="magnify" viewBox="0 0 525 112.499997" height="150" preserveAspectRatio="xMidYMid meet" version="1.0"><defs><g/><clipPath id="f0ed2b5fb5"><path d="M 9.039062 22.726562 L 97.144531 22.726562 L 97.144531 89.183594 L 9.039062 89.183594 Z M 9.039062 22.726562 " clip-rule="nonzero"/></clipPath></defs><g fill="#383333" fill-opacity="1"><g transform="translate(101.00778, 82.219361)"><g><path d="M 42.746094 -13.492188 C 42.746094 -19.136719 39.238281 -23.957031 34.210938 -25.8125 C 38.273438 -27.671875 41.164062 -31.800781 41.164062 -36.484375 C 41.164062 -42.886719 35.863281 -48.1875 29.460938 -48.1875 L 5.371094 -48.1875 C 4.679688 -48.1875 4.335938 -47.703125 4.335938 -47.222656 C 4.335938 -46.742188 4.679688 -46.257812 5.371094 -46.257812 L 8.535156 -46.257812 L 8.535156 -1.925781 L 4.820312 -1.925781 C 4.128906 -1.925781 3.785156 -1.375 3.785156 -0.964844 C 3.785156 -0.480469 4.128906 0 4.820312 0 L 29.601562 0 C 36.898438 -0.0703125 42.746094 -6.058594 42.746094 -13.492188 Z M 30.839844 -46.121094 L 30.839844 -26.777344 C 30.355469 -26.777344 29.945312 -26.707031 29.460938 -26.707031 L 19.273438 -26.707031 L 19.273438 -46.257812 L 29.460938 -46.257812 C 29.945312 -46.257812 30.355469 -46.191406 30.839844 -46.121094 Z M 29.460938 -1.925781 L 19.273438 -1.925781 L 19.273438 -24.78125 L 29.460938 -24.78125 C 29.945312 -24.78125 30.355469 -24.78125 30.839844 -24.710938 L 30.839844 -1.996094 C 30.355469 -1.925781 29.945312 -1.925781 29.460938 -1.925781 Z M 29.460938 -1.925781 "/></g></g></g><g fill="#383333" fill-opacity="1"><g transform="translate(147.196411, 82.219361)"><g><path d="M 27.054688 -49.289062 C 12.046875 -49.289062 2.066406 -39.167969 2.066406 -24.09375 C 2.066406 -9.085938 12.046875 1.03125 27.054688 1.03125 C 41.992188 1.03125 51.972656 -9.085938 51.972656 -24.09375 C 51.972656 -39.167969 41.992188 -49.289062 27.054688 -49.289062 Z M 14.730469 -3.921875 L 14.730469 -44.332031 C 18.171875 -46.257812 22.371094 -47.359375 27.054688 -47.359375 C 31.734375 -47.359375 35.863281 -46.257812 39.304688 -44.332031 L 39.304688 -3.921875 C 35.863281 -1.996094 31.734375 -0.894531 27.054688 -0.894531 C 22.371094 -0.894531 18.171875 -1.996094 14.730469 -3.921875 Z M 14.730469 -3.921875 "/></g></g></g><g fill="#383333" fill-opacity="1"><g transform="translate(201.232289, 82.219361)"><g><path d="M 27.054688 -49.289062 C 12.046875 -49.289062 2.066406 -39.167969 2.066406 -24.09375 C 2.066406 -9.085938 12.046875 1.03125 27.054688 1.03125 C 41.992188 1.03125 51.972656 -9.085938 51.972656 -24.09375 C 51.972656 -39.167969 41.992188 -49.289062 27.054688 -49.289062 Z M 14.730469 -3.921875 L 14.730469 -44.332031 C 18.171875 -46.257812 22.371094 -47.359375 27.054688 -47.359375 C 31.734375 -47.359375 35.863281 -46.257812 39.304688 -44.332031 L 39.304688 -3.921875 C 35.863281 -1.996094 31.734375 -0.894531 27.054688 -0.894531 C 22.371094 -0.894531 18.171875 -1.996094 14.730469 -3.921875 Z M 14.730469 -3.921875 "/></g></g></g><g fill="#383333" fill-opacity="1"><g transform="translate(255.268167, 82.219361)"><g><path d="M 22.164062 -1.925781 L 18.929688 -1.925781 L 18.929688 -46.257812 L 21.820312 -46.257812 C 22.371094 -46.257812 22.855469 -46.671875 22.855469 -47.222656 C 22.855469 -47.773438 22.371094 -48.1875 21.820312 -48.1875 L 5.300781 -48.1875 C 4.75 -48.1875 4.269531 -47.773438 4.269531 -47.222656 C 4.269531 -46.671875 4.75 -46.257812 5.300781 -46.257812 L 8.191406 -46.257812 L 8.191406 -1.925781 L 4.75 -1.925781 C 4.269531 -1.925781 3.785156 -1.515625 3.785156 -0.964844 C 3.785156 -0.414062 4.269531 0 4.75 0 L 22.164062 0 C 22.714844 0 23.199219 -0.414062 23.199219 -0.964844 C 23.199219 -1.515625 22.714844 -1.925781 22.164062 -1.925781 Z M 48.738281 -1.925781 L 46.808594 -1.925781 L 27.671875 -32.148438 L 38.617188 -46.257812 L 43.644531 -46.257812 C 44.195312 -46.257812 44.605469 -46.671875 44.605469 -47.222656 C 44.605469 -47.773438 44.195312 -48.1875 43.644531 -48.1875 L 31.664062 -48.1875 C 31.113281 -48.1875 30.703125 -47.773438 30.703125 -47.222656 C 30.703125 -46.671875 31.113281 -46.257812 31.664062 -46.257812 L 36.070312 -46.257812 L 20.03125 -25.675781 C 19.894531 -25.539062 19.824219 -25.332031 19.824219 -25.125 C 19.824219 -24.917969 19.894531 -24.710938 20.03125 -24.507812 L 34.351562 -1.925781 L 30.976562 -1.925781 C 30.425781 -1.925781 30.011719 -1.515625 30.011719 -0.964844 C 30.011719 -0.414062 30.425781 0 30.976562 0 L 48.738281 0 C 49.289062 0 49.769531 -0.414062 49.769531 -0.964844 C 49.769531 -1.515625 49.289062 -1.925781 48.738281 -1.925781 Z M 48.738281 -1.925781 "/></g></g></g><g fill="#383333" fill-opacity="1"><g transform="translate(305.242746, 82.219361)"><g><path d="M 47.429688 -48.1875 L 36.757812 -48.1875 C 36.277344 -48.1875 35.796875 -47.839844 35.796875 -47.292969 C 35.796875 -46.742188 36.277344 -46.257812 36.757812 -46.257812 L 41.441406 -46.257812 L 29.1875 -14.9375 L 16.109375 -46.191406 L 18.929688 -46.191406 C 19.480469 -46.191406 19.894531 -46.671875 19.894531 -47.222656 C 19.894531 -47.703125 19.480469 -48.117188 18.929688 -48.117188 L 1.375 -48.117188 C 0.757812 -48.117188 0.34375 -47.773438 0.34375 -47.222656 C 0.34375 -46.601562 0.757812 -46.191406 1.375 -46.191406 L 4.128906 -46.191406 L 23.542969 0.414062 C 23.75 0.824219 24.09375 1.03125 24.507812 1.03125 C 24.917969 1.03125 25.261719 0.824219 25.402344 0.414062 L 43.574219 -46.257812 L 47.429688 -46.257812 C 48.046875 -46.257812 48.460938 -46.742188 48.460938 -47.292969 C 48.460938 -47.839844 48.046875 -48.1875 47.429688 -48.1875 Z M 47.429688 -48.1875 "/></g></g></g><g fill="#383333" fill-opacity="1"><g transform="translate(353.90944, 82.219361)"><g><path d="M 35.933594 -10.875 C 35.449219 -10.875 34.898438 -10.53125 34.898438 -9.84375 L 34.898438 -1.925781 L 18.722656 -1.925781 L 18.722656 -24.09375 L 32.421875 -24.09375 L 32.421875 -20.582031 C 32.421875 -19.960938 32.902344 -19.617188 33.523438 -19.617188 C 34.003906 -19.617188 34.488281 -19.960938 34.488281 -20.582031 L 34.488281 -29.804688 C 34.488281 -30.425781 33.9375 -30.769531 33.453125 -30.769531 C 32.902344 -30.769531 32.421875 -30.425781 32.421875 -29.804688 L 32.421875 -26.019531 L 18.722656 -26.019531 L 18.722656 -46.257812 L 34.417969 -46.257812 L 34.417969 -39.375 C 34.417969 -38.753906 34.96875 -38.410156 35.449219 -38.410156 C 35.933594 -38.410156 36.484375 -38.753906 36.484375 -39.375 L 36.484375 -47.222656 C 36.484375 -47.773438 36.070312 -48.1875 35.449219 -48.1875 L 5.09375 -48.1875 C 4.472656 -48.1875 4.128906 -47.703125 4.128906 -47.222656 C 4.128906 -46.671875 4.472656 -46.257812 5.09375 -46.257812 L 7.984375 -46.257812 L 7.984375 -1.925781 L 4.75 -1.925781 C 4.128906 -1.925781 3.785156 -1.515625 3.785156 -0.964844 C 3.785156 -0.480469 4.128906 0 4.75 0 L 35.933594 0 C 36.484375 0 36.964844 -0.414062 36.964844 -0.964844 L 36.964844 -9.84375 C 36.964844 -10.53125 36.414062 -10.875 35.933594 -10.875 Z M 35.933594 -10.875 "/></g></g></g><g fill="#383333" fill-opacity="1"><g transform="translate(393.627531, 82.219361)"><g><path d="M 44.125 -1.925781 L 41.027344 -1.925781 L 41.027344 -13.628906 C 41.027344 -18.035156 38.136719 -21.753906 34.210938 -23.128906 C 38.410156 -25.332031 41.300781 -29.738281 41.300781 -34.96875 C 41.300781 -43.503906 35.65625 -48.1875 27.742188 -48.1875 L 5.164062 -48.1875 C 4.542969 -48.1875 4.199219 -47.910156 4.199219 -47.359375 C 4.199219 -46.742188 4.542969 -46.328125 5.164062 -46.328125 L 8.398438 -46.328125 L 8.398438 -1.925781 L 4.75 -1.925781 C 4.199219 -1.925781 3.785156 -1.515625 3.785156 -0.964844 C 3.785156 -0.414062 4.199219 0 4.75 0 L 21.269531 0 C 21.890625 0 22.234375 -0.414062 22.234375 -0.964844 C 22.234375 -1.515625 21.890625 -1.925781 21.269531 -1.925781 L 19.136719 -1.925781 L 19.136719 -21.753906 L 30.011719 -21.753906 L 30.011719 -1.03125 C 30.011719 -0.414062 30.425781 0 31.046875 0 L 44.125 0 C 44.675781 0 45.15625 -0.34375 45.15625 -0.964844 C 45.15625 -1.515625 44.675781 -1.925781 44.125 -1.925781 Z M 28.359375 -23.679688 L 19.136719 -23.679688 L 19.136719 -46.328125 L 27.742188 -46.328125 C 28.5 -46.328125 29.253906 -46.257812 30.011719 -46.191406 L 30.011719 -23.816406 C 29.460938 -23.75 28.910156 -23.679688 28.359375 -23.679688 Z M 28.359375 -23.679688 "/></g></g></g><g fill="#383333" fill-opacity="1"><g transform="translate(440.848708, 82.219361)"><g><path d="M 29.875 -20.582031 L 9.429688 -44.8125 C 11.425781 -46.257812 14.179688 -47.152344 17.621094 -47.152344 C 23.058594 -47.152344 28.222656 -43.160156 28.222656 -39.167969 L 28.222656 -38.066406 C 28.222656 -37.515625 28.703125 -37.035156 29.253906 -37.035156 C 29.804688 -37.035156 30.289062 -37.515625 30.289062 -38.066406 L 30.289062 -48.1875 C 30.289062 -48.738281 29.804688 -49.148438 29.253906 -49.148438 C 28.703125 -49.148438 28.222656 -48.738281 28.222656 -48.1875 L 28.222656 -44.398438 C 25.8125 -47.292969 21.683594 -49.21875 17.621094 -49.21875 C 9.15625 -49.21875 3.992188 -44.332031 3.992188 -38.066406 C 3.992188 -34.832031 5.507812 -31.253906 8.398438 -27.808594 L 27.808594 -4.679688 C 25.539062 -2.476562 22.164062 -1.03125 18.035156 -1.03125 C 11.152344 -1.03125 5.023438 -5.371094 5.023438 -10.1875 L 5.023438 -12.117188 C 5.023438 -12.667969 4.542969 -13.078125 3.992188 -13.078125 C 3.441406 -13.078125 2.960938 -12.667969 2.960938 -12.117188 L 2.960938 0 C 2.960938 0.550781 3.441406 0.964844 3.992188 0.964844 C 4.542969 0.964844 5.023438 0.550781 5.023438 0 L 5.023438 -4.613281 C 7.847656 -1.101562 13.148438 1.03125 18.035156 1.03125 C 27.121094 1.03125 33.109375 -5.230469 33.109375 -12.117188 C 33.109375 -15.007812 32.148438 -17.898438 29.875 -20.582031 Z M 29.875 -20.582031 "/></g></g></g><g fill="#383333" fill-opacity="1"><g transform="translate(476.230162, 82.219361)"><g><path d="M 35.933594 -10.875 C 35.449219 -10.875 34.898438 -10.53125 34.898438 -9.84375 L 34.898438 -1.925781 L 18.722656 -1.925781 L 18.722656 -24.09375 L 32.421875 -24.09375 L 32.421875 -20.582031 C 32.421875 -19.960938 32.902344 -19.617188 33.523438 -19.617188 C 34.003906 -19.617188 34.488281 -19.960938 34.488281 -20.582031 L 34.488281 -29.804688 C 34.488281 -30.425781 33.9375 -30.769531 33.453125 -30.769531 C 32.902344 -30.769531 32.421875 -30.425781 32.421875 -29.804688 L 32.421875 -26.019531 L 18.722656 -26.019531 L 18.722656 -46.257812 L 34.417969 -46.257812 L 34.417969 -39.375 C 34.417969 -38.753906 34.96875 -38.410156 35.449219 -38.410156 C 35.933594 -38.410156 36.484375 -38.753906 36.484375 -39.375 L 36.484375 -47.222656 C 36.484375 -47.773438 36.070312 -48.1875 35.449219 -48.1875 L 5.09375 -48.1875 C 4.472656 -48.1875 4.128906 -47.703125 4.128906 -47.222656 C 4.128906 -46.671875 4.472656 -46.257812 5.09375 -46.257812 L 7.984375 -46.257812 L 7.984375 -1.925781 L 4.75 -1.925781 C 4.128906 -1.925781 3.785156 -1.515625 3.785156 -0.964844 C 3.785156 -0.480469 4.128906 0 4.75 0 L 35.933594 0 C 36.484375 0 36.964844 -0.414062 36.964844 -0.964844 L 36.964844 -9.84375 C 36.964844 -10.53125 36.414062 -10.875 35.933594 -10.875 Z M 35.933594 -10.875 "/></g></g></g><g clip-path="url(#f0ed2b5fb5)"><path fill="#383333" d="M 96.21875 65.132812 C 94.992188 65.4375 93.734375 65.460938 92.484375 65.53125 C 90.550781 65.640625 88.625 65.785156 86.714844 66.136719 C 86.410156 66.195312 86.21875 66.320312 86.019531 66.558594 C 83.582031 69.496094 81.644531 72.785156 79.421875 75.875 C 76.816406 79.496094 74.195312 83.101562 71.488281 86.644531 C 70.921875 87.386719 70.535156 88.273438 69.667969 88.765625 C 69.179688 89.042969 68.707031 89.167969 68.113281 89.070312 C 61.140625 87.941406 54.199219 86.601562 47.1875 85.722656 C 43.160156 85.21875 39.207031 84.28125 35.203125 83.640625 C 32.078125 83.144531 28.917969 82.84375 25.832031 82.125 C 23.136719 81.5 20.503906 80.621094 17.800781 80.042969 C 15.589844 79.570312 13.480469 78.835938 11.335938 78.179688 C 10.894531 78.042969 10.5625 77.761719 10.535156 77.3125 C 10.453125 75.773438 9.714844 74.414062 9.355469 72.953125 C 9.042969 71.664062 9.089844 70.457031 10.101562 69.476562 C 11.863281 67.773438 13.214844 65.757812 14.582031 63.75 C 14.902344 63.277344 15.253906 62.8125 15.652344 62.402344 C 18.851562 59.125 21.285156 55.214844 24.421875 51.878906 C 25.074219 51.183594 25.53125 50.304688 26.09375 49.519531 C 26.390625 49.097656 26.425781 48.710938 26.191406 48.222656 C 25.707031 47.214844 25.339844 46.15625 25.046875 45.074219 C 24.769531 44.046875 25.058594 43.582031 26.085938 43.382812 C 27.921875 43.027344 27.890625 43.023438 28.117188 40.992188 C 28.230469 39.972656 28.164062 38.910156 28.769531 37.972656 C 28.945312 37.699219 29.121094 37.488281 29.394531 37.324219 C 31.980469 35.734375 34.847656 34.984375 37.8125 34.527344 C 39.472656 34.269531 41.136719 34.113281 42.496094 34.191406 C 46.078125 34.164062 49.300781 34.414062 52.390625 35.539062 C 52.710938 35.65625 52.820312 35.566406 52.910156 35.3125 C 53.214844 34.441406 53.871094 33.84375 54.511719 33.222656 C 55.035156 32.710938 55.53125 32.171875 56.015625 31.625 C 57.078125 30.433594 58.203125 29.335938 59.613281 28.515625 C 61.351562 27.507812 62.925781 26.257812 64.742188 25.34375 C 66.960938 24.226562 69.34375 23.832031 71.734375 23.410156 C 73.488281 23.097656 75.257812 22.882812 77.03125 22.820312 C 79.003906 22.75 79.46875 23.070312 80.203125 24.71875 C 80.808594 26.070312 81.285156 27.480469 81.882812 28.839844 C 83.976562 33.589844 86.441406 38.152344 89.113281 42.601562 C 90.214844 44.441406 90.9375 46.460938 91.941406 48.351562 C 92.699219 49.777344 93.449219 51.203125 94.253906 52.605469 C 95.144531 54.15625 95.125 54.101562 93.492188 54.957031 C 92.960938 55.234375 92.832031 55.355469 93.261719 55.835938 C 93.90625 56.550781 94.472656 57.339844 95.101562 58.074219 C 95.691406 58.765625 95.8125 59.554688 95.671875 60.402344 C 95.554688 61.105469 95.632812 61.71875 96.113281 62.300781 C 96.496094 62.757812 96.773438 63.304688 96.949219 63.882812 C 97.152344 64.546875 96.902344 64.964844 96.21875 65.132812 Z M 96.21875 65.132812 " fill-opacity="1" fill-rule="nonzero"/></g><path fill="#e97532" d="M 95.496094 62.972656 C 96.140625 64.117188 96.476562 64.347656 94.949219 64.523438 C 94.09375 64.621094 93.230469 64.710938 92.367188 64.71875 C 87.929688 64.757812 83.691406 65.769531 79.496094 67.148438 C 76.144531 68.25 72.851562 69.460938 69.675781 70.992188 C 68.472656 71.574219 67.207031 71.226562 65.808594 71.371094 C 62.59375 71.054688 59.222656 71.289062 55.855469 71.515625 C 52.808594 71.71875 49.792969 72.222656 46.765625 72.628906 C 44.375 72.949219 42.050781 73.492188 39.714844 74.039062 C 38.40625 74.34375 38.253906 74.207031 37.878906 72.972656 C 37.34375 71.230469 36.679688 69.53125 35.796875 67.9375 C 34.339844 65.304688 33.621094 62.363281 32.253906 59.707031 C 30.109375 55.535156 28.730469 51.035156 26.617188 46.851562 C 26.304688 46.230469 26.132812 45.535156 25.851562 44.890625 C 25.6875 44.515625 25.804688 44.363281 26.164062 44.300781 C 26.550781 44.234375 26.9375 44.164062 27.320312 44.097656 C 27.582031 44.050781 27.714844 44.101562 27.816406 44.410156 C 28.195312 45.542969 28.652344 46.648438 29.042969 47.773438 C 29.980469 50.480469 31.316406 53.007812 32.5625 55.574219 C 33.109375 56.699219 33.277344 57.949219 33.835938 59.078125 C 35.078125 61.589844 36.257812 64.132812 37.210938 66.777344 C 37.703125 68.144531 38.003906 69.574219 38.628906 70.902344 C 39.039062 71.777344 39.257812 71.945312 40.285156 71.761719 C 41.417969 71.566406 42.542969 71.332031 43.667969 71.105469 C 48.902344 70.050781 54.152344 69.148438 59.523438 69.171875 C 61.902344 69.183594 64.191406 69.722656 66.480469 70.265625 C 67.320312 70.464844 68.078125 70.410156 68.796875 69.921875 C 71.863281 67.84375 75.226562 66.375 78.714844 65.171875 C 81.632812 64.160156 84.621094 63.417969 87.699219 63.101562 C 88.816406 62.984375 89.945312 62.96875 91.070312 62.910156 C 92.398438 62.84375 93.742188 63.070312 95.058594 62.757812 C 95.296875 62.699219 95.398438 62.804688 95.496094 62.972656 Z M 95.496094 62.972656 " fill-opacity="1" fill-rule="nonzero"/><path fill="#89c8e8" d="M 15.210938 71.371094 C 13.703125 70.992188 12.144531 70.8125 10.585938 70.542969 C 16.113281 63.617188 21.582031 56.765625 27.042969 49.925781 C 27.664062 51.113281 28.117188 52.496094 28.679688 53.835938 C 28.765625 54.039062 28.6875 54.171875 28.582031 54.332031 C 24.984375 59.851562 21.203125 65.242188 17.28125 70.535156 C 16.726562 71.28125 16.210938 71.628906 15.210938 71.371094 Z M 74.320312 69.898438 C 72.738281 70.503906 71.164062 71.117188 69.582031 71.707031 C 68.652344 72.054688 67.6875 72.371094 66.6875 72.226562 C 66.089844 72.140625 65.851562 72.375 65.597656 72.816406 C 64.222656 75.207031 62.152344 76.296875 59.390625 76.03125 C 58.117188 75.910156 57 75.308594 55.847656 74.835938 C 55.007812 74.488281 54.359375 73.898438 53.988281 73.113281 C 53.738281 72.585938 53.425781 72.535156 52.957031 72.585938 C 49.816406 72.921875 46.710938 73.492188 43.585938 73.957031 C 42.070312 74.183594 40.644531 74.878906 39.066406 74.820312 C 37.722656 74.773438 37.492188 74.628906 37.121094 73.386719 C 36.742188 72.113281 36.246094 70.886719 35.710938 69.671875 C 34.667969 67.296875 33.417969 65.015625 32.574219 62.542969 C 32.050781 61.011719 31.382812 59.507812 30.578125 58.09375 C 27.070312 62.648438 24.960938 68.074219 21.054688 72.363281 C 22.8125 72.75 24.472656 73.082031 26.117188 73.480469 C 29.050781 74.191406 31.925781 75.128906 34.890625 75.722656 C 38.117188 76.367188 41.394531 76.632812 44.660156 77 C 48.210938 77.398438 51.78125 77.644531 55.3125 78.214844 C 57.65625 78.59375 60.046875 78.640625 62.367188 79.175781 C 63.742188 79.492188 65.128906 79.707031 66.539062 79.792969 C 66.925781 79.820312 67.089844 79.714844 67.277344 79.421875 C 67.691406 78.761719 68.109375 78.09375 68.59375 77.480469 C 70.554688 75.007812 72.542969 72.558594 74.519531 70.097656 C 74.699219 70 74.839844 69.867188 74.933594 69.65625 C 74.683594 69.652344 74.484375 69.734375 74.320312 69.898438 Z M 74.320312 69.898438 " fill-opacity="1" fill-rule="nonzero"/><path fill="#f8ceaf" d="M 82.980469 67.433594 C 81.496094 69.640625 80.011719 71.847656 78.414062 73.972656 C 77.226562 75.554688 75.785156 76.953125 74.613281 78.546875 C 73.40625 80.1875 71.949219 81.625 70.84375 83.34375 C 70.292969 84.199219 69.640625 84.984375 69.015625 85.789062 C 68.824219 86.035156 68.585938 86.277344 68.222656 86.191406 C 67.859375 86.101562 67.789062 85.785156 67.726562 85.46875 C 67.441406 84.066406 67.121094 82.675781 66.867188 81.269531 C 66.757812 80.65625 66.546875 80.347656 65.859375 80.429688 C 65.371094 80.488281 64.851562 80.480469 64.375 80.371094 C 61.589844 79.746094 58.753906 79.507812 55.941406 79.097656 C 51.207031 78.402344 46.449219 77.960938 41.695312 77.472656 C 37.210938 77.015625 32.828125 76.152344 28.527344 74.847656 C 26.039062 74.089844 23.496094 73.613281 20.917969 73.101562 C 21.238281 75.292969 21.546875 77.410156 21.867188 79.53125 C 21.925781 79.9375 22.105469 80.199219 22.585938 80.292969 C 23.585938 80.492188 24.554688 80.824219 25.546875 81.035156 C 28.671875 81.699219 31.84375 82.050781 34.996094 82.535156 C 39.363281 83.203125 43.671875 84.21875 48.0625 84.746094 C 54.765625 85.554688 61.394531 86.824219 68.042969 87.957031 C 69.148438 88.148438 69.695312 87.78125 70.226562 86.984375 C 71.148438 85.59375 72.085938 84.214844 73.191406 82.953125 C 74.691406 81.238281 75.828125 79.265625 77.136719 77.414062 C 79.589844 73.945312 82.089844 70.503906 84.574219 67.050781 C 84.648438 66.949219 84.742188 66.851562 84.671875 66.660156 C 83.980469 66.621094 83.425781 66.773438 82.980469 67.433594 Z M 64.179688 84.453125 C 63.9375 84.804688 64.019531 85.4375 63.394531 85.371094 C 62.554688 85.253906 61.757812 85.214844 61.015625 85.054688 C 60.25 84.890625 59.738281 84.136719 59.207031 83.535156 C 59.15625 83.476562 59.171875 83.335938 59.199219 83.246094 C 59.316406 82.867188 60.601562 82.082031 61.007812 82.105469 C 61.679688 82.144531 62.335938 82.34375 63.023438 82.296875 C 63.65625 82.253906 63.824219 82.894531 64.230469 83.1875 C 64.800781 83.601562 64.46875 84.027344 64.179688 84.453125 Z M 17.988281 77.796875 C 18.128906 78.207031 18.203125 78.636719 18.324219 79.117188 C 16.460938 78.789062 14.730469 78.296875 13.007812 77.664062 C 11.914062 77.257812 11.367188 76.800781 11.238281 75.625 C 11.144531 74.738281 10.722656 73.886719 10.449219 73.015625 C 10.386719 72.820312 10.332031 72.617188 10.285156 72.414062 C 9.96875 71.070312 10.050781 71 11.359375 71.273438 C 12.8125 71.578125 14.273438 71.847656 15.734375 72.109375 C 16.019531 72.160156 16.21875 72.234375 16.296875 72.539062 C 16.761719 74.324219 17.390625 76.054688 17.988281 77.796875 Z M 54.457031 72.4375 C 57.90625 72.253906 61.265625 72.042969 64.722656 72.164062 C 63.488281 74.613281 60.953125 75.609375 58.230469 74.703125 C 57.273438 74.386719 56.253906 74.171875 55.417969 73.554688 C 55.066406 73.289062 54.746094 72.984375 54.457031 72.4375 Z M 47.390625 51.507812 C 48.402344 54.171875 49.433594 56.824219 50.464844 59.5 C 49.589844 59.855469 48.710938 59.636719 47.871094 59.785156 C 46.527344 60.023438 45.242188 60.429688 44.035156 61.066406 C 43.589844 61.300781 43.398438 61.234375 43.234375 60.734375 C 42.464844 58.390625 41.640625 56.070312 40.691406 53.792969 C 40.414062 53.132812 40.050781 52.503906 39.738281 51.878906 C 41.941406 51.175781 44.140625 50.835938 46.402344 50.847656 C 46.941406 50.851562 47.207031 51.03125 47.390625 51.507812 Z M 47.390625 51.507812 " fill-opacity="1" fill-rule="nonzero"/><path fill="#f6f6f6" d="M 30.09375 41.230469 C 31.203125 44.335938 32.746094 47.265625 33.882812 50.363281 C 34.648438 52.441406 35.46875 54.492188 36.605469 56.402344 C 37.25 57.480469 37.734375 58.621094 38.113281 59.816406 C 38.765625 61.867188 39.671875 63.835938 40.171875 65.941406 C 40.277344 66.386719 40.53125 66.792969 40.679688 67.132812 C 49.167969 63.222656 57.761719 62.5625 66.675781 65.621094 C 66.289062 64.378906 65.808594 63.179688 65.203125 62.03125 C 63.445312 58.691406 61.738281 55.324219 59.914062 52.019531 C 58.058594 48.652344 56.984375 44.960938 55.351562 41.503906 C 54.742188 40.207031 53.960938 38.996094 53.414062 37.683594 C 53.058594 36.835938 52.523438 36.4375 51.6875 36.222656 C 46.851562 34.984375 41.984375 34.800781 37.070312 35.707031 C 34.488281 36.1875 31.996094 36.921875 29.714844 38.273438 C 29.257812 38.542969 29.160156 38.773438 29.378906 39.257812 C 29.664062 39.894531 29.859375 40.570312 30.09375 41.230469 Z M 50.765625 60.398438 C 48.5 60.460938 46.324219 60.902344 44.222656 61.761719 C 43.136719 62.207031 43.019531 62.074219 42.550781 60.980469 C 41.328125 58.144531 40.5 55.152344 39.136719 52.371094 C 38.726562 51.535156 38.90625 51.316406 39.832031 51.128906 C 40.949219 50.898438 41.996094 50.394531 43.148438 50.292969 C 43.953125 50.21875 44.753906 50.105469 45.554688 50.007812 C 45.554688 50.039062 45.554688 50.066406 45.558594 50.09375 C 46.050781 50.09375 46.546875 50.097656 47.042969 50.09375 C 47.660156 50.085938 47.898438 50.503906 48.074219 50.992188 C 48.867188 53.160156 49.65625 55.324219 50.449219 57.492188 C 50.714844 58.21875 50.976562 58.953125 51.277344 59.667969 C 51.507812 60.222656 51.261719 60.386719 50.765625 60.398438 Z M 62.070312 60.121094 C 61.984375 60.539062 61.59375 60.414062 61.359375 60.355469 C 60.34375 60.105469 59.324219 59.960938 58.28125 59.84375 C 57.222656 59.730469 56.199219 59.859375 55.171875 59.988281 C 54.75 60.042969 54.339844 60.046875 53.921875 60.058594 C 53.703125 60.0625 53.472656 60.019531 53.472656 59.753906 C 53.46875 59.546875 53.664062 59.460938 53.855469 59.433594 C 54.984375 59.25 56.113281 59.074219 57.085938 58.921875 C 58.707031 59.097656 60.160156 59.207031 61.558594 59.671875 C 61.789062 59.746094 62.148438 59.738281 62.070312 60.121094 Z M 60.058594 57.074219 C 60.355469 57.171875 60.746094 57.25 60.628906 57.660156 C 60.519531 58.023438 60.125 57.902344 59.875 57.839844 C 58.476562 57.5 57.035156 57.453125 55.640625 57.21875 C 54.710938 57.332031 53.804688 57.476562 52.886719 57.417969 C 52.683594 57.40625 52.359375 57.519531 52.34375 57.15625 C 52.332031 56.824219 52.671875 56.816406 52.863281 56.804688 C 54.359375 56.695312 55.84375 56.273438 57.363281 56.625 C 58.25 56.828125 59.183594 56.777344 60.058594 57.074219 Z M 58.496094 53.527344 C 58.496094 53.773438 58.3125 53.808594 58.117188 53.8125 C 57.933594 53.816406 57.75 53.816406 57.390625 53.816406 C 55.859375 53.398438 54.199219 53.757812 52.53125 54.085938 C 52.261719 54.140625 51.890625 54.199219 51.820312 53.808594 C 51.742188 53.371094 52.105469 53.34375 52.429688 53.300781 C 53.433594 53.160156 54.433594 52.980469 55.441406 52.878906 C 56.359375 52.785156 57.246094 53.117188 58.15625 53.167969 C 58.367188 53.179688 58.496094 53.3125 58.496094 53.527344 Z M 56.246094 50.054688 C 56.660156 50.070312 57.078125 50.179688 57.410156 50.457031 C 57.550781 50.574219 57.675781 50.722656 57.5625 50.929688 C 57.476562 51.085938 57.324219 51.15625 57.164062 51.101562 C 55.097656 50.425781 52.960938 50.75 50.855469 50.660156 C 50.777344 50.65625 50.699219 50.660156 50.621094 50.65625 C 50.398438 50.644531 50.179688 50.582031 50.152344 50.332031 C 50.117188 50.027344 50.375 49.910156 50.601562 49.898438 C 51.308594 49.871094 52.015625 49.890625 52.496094 49.890625 C 53.90625 49.757812 55.070312 50.003906 56.246094 50.054688 Z M 54.355469 46.378906 C 54.648438 46.464844 54.941406 46.582031 54.835938 46.957031 C 54.742188 47.296875 54.417969 47.253906 54.175781 47.191406 C 51.832031 46.613281 49.4375 46.652344 47.070312 46.808594 C 43.980469 47.011719 40.855469 47.007812 37.839844 47.851562 C 37.238281 48.015625 36.664062 48.273438 36.0625 48.449219 C 35.859375 48.507812 35.53125 48.570312 35.433594 48.300781 C 35.316406 47.988281 35.671875 47.960938 35.851562 47.867188 C 37.441406 47.027344 39.15625 46.605469 40.933594 46.457031 C 43.664062 46.222656 46.386719 45.863281 49.425781 45.957031 C 50.734375 45.933594 52.328125 45.933594 53.902344 46.269531 C 54.054688 46.300781 54.207031 46.335938 54.355469 46.378906 Z M 53.554688 42.636719 C 53.453125 43.132812 53.003906 42.953125 52.640625 42.890625 C 49.171875 42.273438 45.71875 42.613281 42.261719 43.054688 C 39.90625 43.359375 37.574219 43.746094 35.296875 44.429688 C 35.171875 44.464844 35.03125 44.53125 34.917969 44.5 C 34.738281 44.453125 34.445312 44.488281 34.4375 44.214844 C 34.433594 44.007812 34.664062 43.988281 34.835938 43.921875 C 37.28125 42.964844 39.851562 42.570312 42.429688 42.1875 C 44.394531 41.898438 46.367188 41.6875 48.429688 41.722656 C 49.855469 41.628906 51.335938 41.792969 52.804688 42.050781 C 53.15625 42.113281 53.652344 42.152344 53.554688 42.636719 Z M 33.75 39.839844 C 35.398438 38.792969 37.289062 38.46875 39.15625 38.152344 C 40.542969 37.914062 41.949219 37.761719 43.363281 37.792969 C 46.199219 37.8125 48.96875 38.285156 51.726562 38.894531 C 52.070312 38.96875 52.503906 39.058594 52.425781 39.460938 C 52.332031 39.953125 51.894531 39.796875 51.523438 39.710938 C 48.613281 39.054688 45.679688 38.5 42.6875 38.65625 C 39.738281 38.8125 36.820312 39.210938 34.097656 40.480469 C 33.851562 40.59375 33.535156 40.828125 33.339844 40.472656 C 33.140625 40.105469 33.523438 39.984375 33.75 39.839844 Z M 94.207031 59.410156 C 94.476562 59.460938 94.8125 59.417969 94.78125 59.867188 C 94.75 60.339844 94.402344 60.210938 94.144531 60.207031 C 93.046875 60.199219 91.949219 60.195312 90.855469 60.351562 C 85.648438 61.09375 80.421875 61.777344 75.578125 63.984375 C 73.625 64.875 71.5 65.472656 69.878906 67.003906 C 69.628906 67.242188 69.300781 67.40625 69.105469 67.925781 C 77.042969 63.117188 85.601562 61.132812 94.707031 60.882812 C 94.5 62.09375 94.5 62.105469 93.261719 62.050781 C 86.785156 61.765625 80.671875 63.175781 74.765625 65.765625 C 72.695312 66.671875 70.679688 67.644531 68.871094 68.96875 C 67.738281 69.796875 66.621094 69.5625 65.542969 69.199219 C 61.398438 67.792969 57.195312 68.140625 52.964844 68.585938 C 48.664062 69.039062 44.476562 70.039062 40.273438 70.976562 C 40.179688 70.996094 40.074219 70.976562 39.960938 70.976562 C 39.980469 70.347656 40.269531 70.054688 40.859375 69.808594 C 43.933594 68.535156 47.089844 67.578125 50.394531 67.164062 C 53.167969 66.8125 55.957031 66.386719 58.757812 66.671875 C 60.828125 66.878906 62.847656 67.429688 64.867188 67.949219 C 65.632812 68.148438 66.398438 68.488281 67.25 68.207031 C 64.441406 67.070312 61.535156 66.292969 58.5 65.984375 C 55.421875 65.675781 52.390625 66.125 49.367188 66.519531 C 46.300781 66.917969 43.402344 67.9375 40.574219 69.3125 C 40.511719 68.710938 40.832031 68.375 41.242188 68.078125 C 42.757812 66.988281 44.539062 66.566406 46.285156 66.019531 C 50.167969 64.808594 54.132812 64.472656 58.15625 64.808594 C 61.125 65.058594 64.097656 65.390625 66.773438 66.894531 C 67.199219 67.136719 67.644531 67.144531 68.132812 66.992188 C 69.394531 66.601562 70.492188 65.898438 71.644531 65.296875 C 76.441406 62.78125 81.398438 60.671875 86.792969 59.808594 C 89.015625 59.453125 91.257812 59.230469 93.511719 59.308594 C 93.746094 59.316406 93.976562 59.367188 94.207031 59.410156 Z M 68.742188 80 C 68.644531 80.148438 68.394531 80.347656 68.679688 80.523438 C 68.917969 80.667969 69.085938 80.453125 69.199219 80.292969 C 70.035156 79.054688 71.113281 78.019531 72.074219 76.886719 C 73.925781 74.695312 75.816406 72.535156 77.398438 70.128906 C 77.828125 69.484375 78.519531 69.039062 78.949219 68.371094 C 79.117188 68.109375 79.460938 68.0625 79.933594 68.046875 C 79.082031 69.21875 78.417969 70.339844 77.582031 71.34375 C 75 74.453125 72.273438 77.445312 69.816406 80.65625 C 69.546875 81.007812 69.3125 81.386719 69.074219 81.757812 C 68.972656 81.921875 68.917969 82.140625 69.089844 82.253906 C 69.265625 82.371094 69.4375 82.210938 69.558594 82.070312 C 69.980469 81.574219 70.4375 81.097656 70.800781 80.558594 C 71.832031 79.046875 73.085938 77.710938 74.214844 76.277344 C 75.632812 74.476562 77.203125 72.796875 78.664062 71.03125 C 79.476562 70.046875 80.226562 69.007812 80.96875 67.964844 C 81.304688 67.496094 81.738281 67.316406 82.234375 67.277344 C 78.085938 73.484375 72.875 78.878906 68.507812 85.105469 C 68.1875 83.625 67.910156 82.3125 67.625 81 C 67.535156 80.605469 67.710938 80.308594 67.921875 79.996094 C 69.308594 77.902344 70.933594 75.992188 72.519531 74.054688 C 73.738281 72.558594 74.75 70.90625 76.097656 69.503906 C 76.582031 69 77.117188 68.863281 77.753906 68.652344 C 75.421875 71.769531 73.054688 74.765625 70.5 77.605469 C 69.832031 78.347656 69.292969 79.175781 68.742188 80 Z M 28.902344 41.5 C 28.769531 41.046875 28.917969 40.589844 29.046875 40.140625 C 29.957031 43.425781 31.585938 46.410156 32.722656 49.578125 C 33.742188 52.417969 34.976562 55.148438 36.378906 57.835938 C 37.585938 60.148438 38.378906 62.675781 39.089844 65.203125 C 39.324219 66.035156 39.609375 66.828125 40.007812 67.59375 C 40.132812 67.839844 40.386719 68.113281 40.023438 68.53125 C 39.351562 66.753906 38.324219 65.226562 37.726562 63.492188 C 37.285156 62.21875 36.792969 60.960938 36.144531 59.78125 C 34.875 57.480469 33.941406 55.046875 33.054688 52.589844 C 32.421875 50.835938 31.617188 49.160156 30.890625 47.449219 C 30.070312 45.511719 29.5 43.503906 28.902344 41.5 Z M 28.828125 44.949219 C 28.601562 44.195312 28.523438 43.484375 28.710938 42.683594 C 28.859375 43.167969 29.03125 43.648438 29.15625 44.140625 C 29.597656 45.855469 30.238281 47.5 31.035156 49.070312 C 32.285156 51.527344 33.085938 54.152344 34.0625 56.710938 C 34.71875 58.417969 35.714844 59.941406 36.414062 61.617188 C 36.574219 61.996094 36.734375 62.378906 36.847656 62.765625 C 37.464844 64.84375 38.640625 66.675781 39.46875 68.660156 C 39.730469 69.296875 39.777344 69.835938 39.34375 70.449219 C 38.675781 68.992188 38.300781 67.460938 37.746094 65.996094 C 36.773438 63.4375 35.464844 61.042969 34.394531 58.542969 C 33.648438 56.804688 33.011719 55.023438 32.183594 53.320312 C 30.867188 50.609375 29.695312 47.84375 28.828125 44.949219 Z M 94.53125 58.628906 C 93.140625 58.511719 91.882812 58.523438 90.621094 58.601562 C 86.230469 58.863281 82.019531 59.824219 77.953125 61.519531 C 75.496094 62.542969 73.03125 63.542969 70.746094 64.921875 C 70.613281 65.085938 70.4375 65.179688 70.230469 65.226562 C 70.167969 64.976562 70.347656 64.945312 70.507812 64.898438 C 71.261719 64.167969 72.101562 63.546875 73.042969 63.074219 C 75.703125 61.742188 78.339844 60.351562 81.046875 59.117188 C 83.46875 58.015625 86.085938 57.429688 88.617188 56.621094 C 89.609375 56.300781 90.613281 56.003906 91.597656 55.660156 C 91.953125 55.539062 92.097656 55.597656 92.328125 55.917969 C 92.988281 56.816406 93.730469 57.65625 94.53125 58.628906 Z M 93.375 53.019531 C 92.523438 51.707031 91.835938 50.300781 91.078125 48.9375 C 89.976562 46.953125 89.148438 44.839844 88 42.875 C 85.003906 37.746094 82.019531 32.601562 79.964844 26.996094 C 79.605469 26.019531 79.304688 25.019531 78.753906 24.121094 C 78.566406 23.816406 78.402344 23.65625 77.957031 23.722656 C 76.457031 23.9375 74.929688 23.988281 73.4375 24.230469 C 70.941406 24.636719 68.414062 24.910156 66.046875 25.933594 C 64.0625 26.792969 62.304688 28 60.535156 29.207031 C 59.714844 29.765625 58.8125 30.1875 58.097656 30.90625 C 56.867188 32.148438 55.734375 33.484375 54.414062 34.644531 C 53.363281 35.566406 53.351562 36.0625 53.953125 37.285156 C 54.078125 37.539062 54.21875 37.792969 54.375 38.03125 C 55.699219 40.101562 56.820312 42.292969 57.621094 44.597656 C 59.105469 48.882812 61.421875 52.757812 63.460938 56.765625 C 65.003906 59.796875 66.789062 62.703125 67.839844 66.011719 C 67.960938 65.945312 68.058594 65.90625 68.132812 65.847656 C 69.140625 65.019531 70.128906 64.164062 71.160156 63.363281 C 72.761719 62.117188 74.667969 61.421875 76.453125 60.511719 C 78.429688 59.503906 80.292969 58.253906 82.425781 57.589844 C 84.566406 56.925781 86.675781 56.152344 88.851562 55.589844 C 90.238281 55.230469 91.585938 54.726562 92.941406 54.257812 C 93.894531 53.925781 93.910156 53.847656 93.375 53.019531 Z M 57.40625 36.757812 C 57.257812 36.550781 57.464844 36.367188 57.621094 36.230469 C 60.023438 34.144531 62.222656 31.761719 65.195312 30.46875 C 67.9375 29.277344 70.792969 28.351562 73.714844 27.667969 C 74.136719 27.570312 74.601562 27.65625 75.046875 27.65625 C 75.046875 27.636719 75.046875 27.617188 75.046875 27.59375 C 75.386719 27.59375 75.730469 27.574219 76.066406 27.601562 C 76.328125 27.621094 76.714844 27.535156 76.714844 27.96875 C 76.71875 28.390625 76.324219 28.324219 76.070312 28.367188 C 75.761719 28.417969 75.441406 28.417969 75.128906 28.402344 C 73.851562 28.355469 72.644531 28.660156 71.453125 29.070312 C 69.925781 29.59375 68.394531 30.105469 66.863281 30.617188 C 64.71875 31.332031 62.882812 32.554688 61.230469 34.0625 C 60.207031 34.996094 59.105469 35.832031 58.003906 36.671875 C 57.828125 36.804688 57.605469 37.039062 57.40625 36.757812 Z M 59.53125 41.078125 C 59.359375 41.144531 59.089844 41.210938 58.976562 40.964844 C 58.871094 40.734375 59.113281 40.675781 59.257812 40.574219 C 59.898438 40.121094 60.445312 39.5625 61.007812 39.015625 C 63.558594 36.558594 66.492188 34.699219 69.882812 33.601562 C 70.75 33.320312 71.617188 33.042969 72.445312 32.644531 C 74.171875 31.820312 76.265625 31.359375 78.507812 31.285156 C 78.691406 31.296875 78.988281 31.296875 79.050781 31.621094 C 79.132812 32.015625 78.796875 32.113281 78.519531 32.152344 C 77.746094 32.265625 76.96875 32.363281 76.191406 32.425781 C 74.234375 32.578125 72.640625 33.757812 70.816406 34.285156 C 67.050781 35.375 63.789062 37.3125 61.011719 40.066406 C 60.585938 40.488281 60.09375 40.851562 59.53125 41.078125 Z M 62.414062 45.160156 C 62.230469 45.429688 61.976562 45.824219 61.609375 45.5625 C 61.183594 45.257812 61.558594 44.949219 61.753906 44.644531 C 63.894531 41.320312 67.242188 39.515625 70.574219 37.714844 C 73.144531 36.324219 75.882812 35.328125 78.714844 34.613281 C 79.394531 34.441406 80.101562 34.394531 80.707031 34.199219 C 80.988281 34.214844 81.21875 34.183594 81.269531 34.472656 C 81.3125 34.710938 81.203125 34.882812 80.996094 34.980469 C 80.832031 35.058594 80.65625 35.152344 80.480469 35.164062 C 78.949219 35.25 77.570312 35.929688 76.109375 36.292969 C 74.226562 36.761719 72.546875 37.757812 70.808594 38.582031 C 67.523438 40.144531 64.492188 42.050781 62.414062 45.160156 Z M 63.574219 49.285156 C 63.285156 49.046875 63.769531 48.671875 63.953125 48.378906 C 65.265625 46.289062 67.261719 44.902344 69.222656 43.53125 C 70.863281 42.386719 72.652344 41.4375 74.433594 40.503906 C 76.691406 39.324219 79.222656 39.128906 81.6875 38.722656 C 82.007812 38.660156 82.390625 38.570312 82.453125 39 C 82.519531 39.4375 82.125 39.503906 81.773438 39.566406 C 79.457031 39.957031 77.042969 40.113281 74.980469 41.292969 C 72.359375 42.789062 69.597656 44.085938 67.332031 46.160156 C 66.425781 46.988281 65.429688 47.71875 64.699219 48.722656 C 64.671875 48.765625 64.636719 48.804688 64.597656 48.839844 C 64.300781 49.125 63.882812 49.539062 63.574219 49.285156 Z M 64.792969 53.476562 C 64.621094 53.449219 64.496094 53.367188 64.449219 53.203125 C 64.40625 53.042969 64.441406 52.921875 64.613281 52.820312 C 68.039062 50.761719 71.128906 48.207031 74.621094 46.246094 C 76.292969 45.308594 78.078125 44.640625 79.847656 43.949219 C 80.96875 43.511719 82.21875 43.667969 83.398438 43.457031 C 83.808594 43.386719 84.222656 43.335938 84.613281 43.277344 C 84.914062 43.300781 85.285156 43.210938 85.320312 43.609375 C 85.355469 43.960938 85.042969 44.066406 84.738281 44.113281 C 83.863281 44.246094 82.992188 44.457031 82.113281 44.503906 C 79.625 44.644531 77.492188 45.804688 75.402344 46.933594 C 72.925781 48.273438 70.519531 49.753906 68.300781 51.515625 C 67.46875 52.175781 66.507812 52.683594 65.605469 53.253906 C 65.359375 53.410156 65.097656 53.523438 64.792969 53.476562 Z M 67.195312 56.90625 C 67.023438 57.027344 66.855469 57.152344 66.6875 57.273438 C 66.550781 57.375 66.414062 57.441406 66.273438 57.292969 C 66.136719 57.152344 66.167969 57.015625 66.289062 56.882812 C 66.464844 56.691406 66.632812 56.488281 66.820312 56.304688 C 69.625 53.566406 72.886719 51.574219 76.605469 50.296875 C 78.847656 49.523438 80.957031 48.410156 83.242188 47.742188 C 84.144531 47.476562 85.027344 47.171875 85.984375 47.183594 C 86.273438 47.199219 86.5625 47.207031 86.847656 47.226562 C 87.09375 47.238281 87.246094 47.371094 87.261719 47.609375 C 87.273438 47.859375 87.113281 47.976562 86.871094 48.003906 C 81.335938 48.625 76.5625 51.3125 71.640625 53.585938 C 69.945312 54.367188 68.726562 55.867188 67.195312 56.90625 Z M 89.59375 50.347656 C 89.515625 50.734375 89.15625 50.738281 88.910156 50.75 C 87.136719 50.820312 85.507812 51.496094 83.820312 51.925781 C 83.238281 52.070312 82.644531 52.214844 82.136719 52.539062 C 79.125 54.457031 75.734375 55.585938 72.558594 57.167969 C 71.195312 57.851562 69.855469 58.53125 68.824219 59.6875 C 68.738281 59.785156 68.632812 59.867188 68.527344 59.941406 C 68.34375 60.066406 68.125 60.152344 67.964844 59.949219 C 67.824219 59.773438 67.875 59.589844 68.046875 59.402344 C 68.953125 58.421875 69.894531 57.503906 71.117188 56.890625 C 73.570312 55.667969 76.097656 54.617188 78.597656 53.503906 C 78.980469 53.335938 79.390625 53.199219 79.730469 52.96875 C 82.386719 51.144531 85.460938 50.578125 88.550781 50.058594 C 88.804688 50.015625 89.070312 50.027344 89.332031 50.039062 C 89.519531 50.042969 89.613281 50.15625 89.59375 50.347656 Z M 89.59375 50.347656 " fill-opacity="1" fill-rule="nonzero"/></svg>