<svg xmlns="http://www.w3.org/2000/svg" xmlns:xlink="http://www.w3.org/1999/xlink" width="300" zoomAndPan="magnify" viewBox="0 0 224.87999 225" height="300" preserveAspectRatio="xMidYMid meet" version="1.0"><defs><clipPath id="4d8792d13d"><path d="M 3.375 3.4375 L 221.507812 3.4375 L 221.507812 221.570312 L 3.375 221.570312 Z M 3.375 3.4375 " clip-rule="nonzero"/></clipPath></defs><g clip-path="url(#4d8792d13d)"><path fill="#e97532" d="M 112.441406 3.4375 C 52.207031 3.4375 3.375 52.269531 3.375 112.503906 C 3.375 172.738281 52.207031 221.570312 112.441406 221.570312 C 172.679688 221.570312 221.507812 172.738281 221.507812 112.503906 C 221.507812 52.269531 172.679688 3.4375 112.441406 3.4375 Z M 45.324219 149.3125 C 45.324219 143.257812 50.125 137.355469 56.097656 136.359375 C 62.066406 135.347656 66.933594 139.367188 66.917969 145.105469 C 66.90625 150.84375 62.019531 156.324219 56.0625 157.648438 C 50.109375 158.96875 45.328125 155.367188 45.324219 149.3125 Z M 110.671875 174.378906 C 92.671875 171.585938 74.714844 171.015625 57.152344 172.175781 C 57.160156 167.738281 57.167969 163.300781 57.175781 158.863281 C 63.6875 157.105469 68.933594 151.117188 68.945312 144.792969 C 68.964844 138.472656 63.746094 133.96875 57.21875 134.707031 C 57.234375 127.152344 57.246094 119.597656 57.261719 112.042969 C 74.925781 113.0625 92.789062 114.757812 110.6875 117.621094 C 110.679688 136.539062 110.679688 155.464844 110.671875 174.378906 Z M 112.441406 111.285156 C 95.71875 111.285156 82.109375 97.679688 82.109375 80.953125 C 82.109375 64.230469 95.71875 50.625 112.441406 50.625 C 129.167969 50.625 142.773438 64.230469 142.777344 80.957031 C 142.773438 97.679688 129.167969 111.285156 112.441406 111.285156 Z M 114.210938 174.375 C 114.207031 155.457031 114.203125 136.53125 114.199219 117.617188 C 132.097656 114.753906 149.957031 113.058594 167.628906 112.042969 C 167.636719 119.601562 167.652344 127.152344 167.664062 134.710938 C 161.136719 133.972656 155.921875 138.476562 155.9375 144.792969 C 155.953125 151.121094 161.199219 157.109375 167.703125 158.859375 C 167.714844 163.296875 167.722656 167.734375 167.730469 172.171875 C 150.175781 171.007812 132.214844 171.578125 114.210938 174.375 Z M 168.824219 157.648438 C 162.867188 156.328125 157.984375 150.847656 157.96875 145.101562 C 157.957031 139.367188 162.816406 135.347656 168.792969 136.359375 C 174.761719 137.355469 179.566406 143.257812 179.5625 149.308594 C 179.558594 155.367188 174.78125 158.964844 168.824219 157.648438 Z M 168.824219 157.648438 " fill-opacity="1" fill-rule="nonzero"/></g></svg>